<svg xmlns="http://www.w3.org/2000/svg" xmlns:xlink="http://www.w3.org/1999/xlink" version="1.1" width="1000" height="1000" viewBox="0 0 1000 1000" xml:space="preserve">
<desc>Created with Fabric.js 3.5.0</desc>
<defs>
</defs>
<rect x="0" y="0" width="100%" height="100%" fill="#ffffff"/>
<g transform="matrix(2.206 0 0 2.206 500.0008 500.0008)" id="844902">
<g style="" vector-effect="non-scaling-stroke">
		<g transform="matrix(1 0 0 1 -95.6 -32.2)" id="Layer_1">
<path style="stroke: none; stroke-width: 1; stroke-dasharray: none; stroke-linecap: butt; stroke-dashoffset: 0; stroke-linejoin: miter; stroke-miterlimit: 4; is-custom-font: none; font-file-url: none; fill: none; fill-rule: nonzero; opacity: 1;" transform=" translate(-109.9, -173.85)" d="M 76.5 199 c 23.8 0 35.2 -9.4 35.4 -9.5 l 1.2 -1.1 l 0.4 1.6 c 0.5 2.2 0.8 3.6 1 4.4 c 6.3 -2.2 14.1 -9.5 14.2 -9.6 l 0.7 -0.6 l 0.7 0.6 c 15.1 13.2 34.4 14 37.7 14.1 c 0.3 -1.8 0.8 -3.6 1.4 -5.4 L 60.9 148.7 c -5.5 13.8 -8.9 28.3 -10.3 43.1 l 2.6 4.5 C 61.3 198.1 69.1 199 76.5 199 z" stroke-linecap="round"/>
</g>
		<g transform="matrix(1 0 0 1 -87.1 -59.05)" id="Layer_1">
<path style="stroke: none; stroke-width: 1; stroke-dasharray: none; stroke-linecap: butt; stroke-dashoffset: 0; stroke-linejoin: miter; stroke-miterlimit: 4; is-custom-font: none; font-file-url: none; fill: none; fill-rule: nonzero; opacity: 1;" transform=" translate(-118.4, -147)" d="M 173.8 184.2 c -2.6 -2.5 -16.8 -15.4 -36.6 -16.7 l -0.9 -0.1 l 0 -0.9 c 0 -0.1 -0.4 -10.8 -3.2 -16.8 c -0.7 0.5 -1.9 1.2 -3.8 2.4 l -1.4 0.9 l -0.1 -1.6 c 0 -0.2 -2.5 -24.4 -36.6 -46.3 l -4.9 1.3 c -9.6 11.4 -17.4 24.1 -23.3 37.7 L 171 188.9 C 171.8 187.3 172.7 185.7 173.8 184.2 z" stroke-linecap="round"/>
</g>
		<g transform="matrix(1 0 0 1 -95.65 32.1)" id="Layer_1">
<path style="stroke: none; stroke-width: 1; stroke-dasharray: none; stroke-linecap: butt; stroke-dashoffset: 0; stroke-linejoin: miter; stroke-miterlimit: 4; is-custom-font: none; font-file-url: none; fill: none; fill-rule: nonzero; opacity: 1;" transform=" translate(-109.85, -238.15)" d="M 167.7 213.1 c -3.4 0 -22.7 0.9 -37.7 14.1 l -0.7 0.6 l -0.7 -0.6 c -0.1 -0.1 -7.9 -7.4 -14.2 -9.6 c -0.2 0.8 -0.5 2.2 -1 4.4 l -0.4 1.6 l -1.2 -1.1 c -0.1 -0.1 -11.6 -9.5 -35.4 -9.5 c -7.3 0 -15.1 0.9 -23.2 2.7 l -2.6 4.5 c 1.3 14.8 4.8 29.3 10.3 43.1 l 108.2 -44.8 C 168.5 216.6 168 214.8 167.7 213.1 z" stroke-linecap="round"/>
</g>
		<g transform="matrix(1 0 0 1 -87.3 58.9)" id="Layer_1">
<path style="stroke: none; stroke-width: 1; stroke-dasharray: none; stroke-linecap: butt; stroke-dashoffset: 0; stroke-linejoin: miter; stroke-miterlimit: 4; is-custom-font: none; font-file-url: none; fill: none; fill-rule: nonzero; opacity: 1;" transform=" translate(-118.2, -264.95)" d="M 127.6 260.6 l 0.1 -1.6 l 1.4 0.9 c 1.9 1.2 3.1 1.9 3.8 2.4 c 2.9 -6 3.2 -16.7 3.2 -16.8 l 0 -0.9 l 0.9 -0.1 c 19.9 -1.3 34 -14.2 36.6 -16.7 c -1 -1.5 -1.9 -3 -2.7 -4.7 L 62.8 267.8 c 5.9 13.6 13.7 26.3 23.3 37.7 l 4.9 1.3 C 125.1 285 127.6 260.8 127.6 260.6 z" stroke-linecap="round"/>
</g>
		<g transform="matrix(1 0 0 1 87.4 -59)" id="Layer_1">
<path style="stroke: none; stroke-width: 1; stroke-dasharray: none; stroke-linecap: butt; stroke-dashoffset: 0; stroke-linejoin: miter; stroke-miterlimit: 4; is-custom-font: none; font-file-url: none; fill: none; fill-rule: nonzero; opacity: 1;" transform=" translate(-292.9, -147.05)" d="M 283.4 151.4 l -0.1 1.6 l -1.4 -0.9 c -1.9 -1.2 -3.1 -1.9 -3.8 -2.4 c -2.9 6 -3.2 16.7 -3.2 16.8 l 0 0.9 l -0.9 0.1 c -19.9 1.3 -34 14.2 -36.6 16.7 c 1 1.5 2 3.1 2.8 4.8 l 108.2 -44.8 c -5.9 -13.6 -13.8 -26.3 -23.3 -37.8 l -4.9 -1.3 C 285.8 127 283.4 151.1 283.4 151.4 z" stroke-linecap="round"/>
</g>
		<g transform="matrix(1 0 0 1 -58.8 87.1)" id="Layer_1">
<path style="stroke: none; stroke-width: 1; stroke-dasharray: none; stroke-linecap: butt; stroke-dashoffset: 0; stroke-linejoin: miter; stroke-miterlimit: 4; is-custom-font: none; font-file-url: none; fill: none; fill-rule: nonzero; opacity: 1;" transform=" translate(-146.7, -293.15)" d="M 183.8 237.7 c -2.5 2.6 -15.4 16.8 -16.7 36.6 l -0.1 0.9 l -0.9 0 c -0.1 0 -10.8 0.4 -16.8 3.2 c 0.5 0.7 1.2 1.9 2.4 3.8 l 0.9 1.4 l -1.6 0.1 c -0.2 0 -24.4 2.5 -46.3 36.6 l 1.3 4.9 c 11.5 9.6 24.2 17.5 37.9 23.4 l 44.8 -108.2 C 186.9 239.7 185.3 238.8 183.8 237.7 z" stroke-linecap="round"/>
</g>
		<g transform="matrix(1 0 0 1 58.95 -87.25)" id="Layer_1">
<path style="stroke: none; stroke-width: 1; stroke-dasharray: none; stroke-linecap: butt; stroke-dashoffset: 0; stroke-linejoin: miter; stroke-miterlimit: 4; is-custom-font: none; font-file-url: none; fill: none; fill-rule: nonzero; opacity: 1;" transform=" translate(-264.45, -118.8)" d="M 227.2 174.2 c 2.5 -2.6 15.4 -16.8 16.7 -36.6 l 0.1 -0.9 l 0.9 0 c 0.1 0 10.8 -0.4 16.8 -3.2 c -0.5 -0.7 -1.2 -1.9 -2.4 -3.8 l -0.9 -1.4 l 1.6 -0.1 c 0.2 0 24.4 -2.5 46.3 -36.6 l -1.3 -4.9 c -11.4 -9.5 -24.1 -17.4 -37.6 -23.3 l -44.8 108.2 C 224.2 172.3 225.8 173.2 227.2 174.2 z" stroke-linecap="round"/>
</g>
		<g transform="matrix(1 0 0 1 -32.0395 -95.85)" id="Layer_1">
<path style="stroke: none; stroke-width: 1; stroke-dasharray: none; stroke-linecap: butt; stroke-dashoffset: 0; stroke-linejoin: miter; stroke-miterlimit: 4; is-custom-font: none; font-file-url: none; fill: none; fill-rule: nonzero; opacity: 1;" transform=" translate(-173.4605, -110.2)" d="M 198.4 168.1 c -0.1 -3.7 -1 -22.8 -14.1 -37.7 l -0.6 -0.7 l 0.6 -0.7 c 0.1 -0.1 7.4 -7.9 9.6 -14.2 c -1 -0.2 -2.4 -0.5 -4.4 -1 l -1.6 -0.4 l 1.1 -1.2 c 0.2 -0.2 15.5 -19 6.9 -58.6 l -4.5 -2.6 c -14.8 1.3 -29.2 4.8 -43 10.2 l 44.8 108.2 C 194.9 168.9 196.7 168.5 198.4 168.1 z" stroke-linecap="round"/>
</g>
		<g transform="matrix(1 0 0 1 -58.95 -87.4)" id="Layer_1">
<path style="stroke: none; stroke-width: 1; stroke-dasharray: none; stroke-linecap: butt; stroke-dashoffset: 0; stroke-linejoin: miter; stroke-miterlimit: 4; is-custom-font: none; font-file-url: none; fill: none; fill-rule: nonzero; opacity: 1;" transform=" translate(-146.55, -118.65)" d="M 150.9 128.1 l 1.6 0.1 l -0.9 1.4 c -1.2 1.9 -1.9 3.1 -2.4 3.8 c 6 2.9 16.7 3.2 16.8 3.2 l 0.9 0 l 0.1 0.9 c 1.3 19.9 14.2 34.1 16.7 36.6 c 1.5 -1 3.1 -2 4.8 -2.8 L 143.8 63.2 c -13.6 5.9 -26.4 13.8 -37.9 23.4 l -1.3 4.9 C 126.6 125.7 150.7 128 150.9 128.1 z" stroke-linecap="round"/>
</g>
		<g transform="matrix(1 0 0 1 32.0395 -95.7)" id="Layer_1">
<path style="stroke: none; stroke-width: 1; stroke-dasharray: none; stroke-linecap: butt; stroke-dashoffset: 0; stroke-linejoin: miter; stroke-miterlimit: 4; is-custom-font: none; font-file-url: none; fill: none; fill-rule: nonzero; opacity: 1;" transform=" translate(-237.5395, -110.35)" d="M 223 113.5 l -1.6 0.4 c -2 0.5 -3.5 0.8 -4.4 1 c 2.2 6.3 9.5 14.1 9.6 14.2 l 0.6 0.7 l -0.6 0.7 c -13.1 14.9 -14 34.1 -14.1 37.7 c 1.8 0.3 3.6 0.8 5.4 1.4 l 44.8 -108.2 c -13.8 -5.5 -28.3 -9 -43.2 -10.3 l -4.5 2.6 c -8.6 39.6 6.7 58.4 6.9 58.6 L 223 113.5 z" stroke-linecap="round"/>
</g>
		<g transform="matrix(1 0 0 1 95.65 -32.25)" id="Layer_1">
<path style="stroke: none; stroke-width: 1; stroke-dasharray: none; stroke-linecap: butt; stroke-dashoffset: 0; stroke-linejoin: miter; stroke-miterlimit: 4; is-custom-font: none; font-file-url: none; fill: none; fill-rule: nonzero; opacity: 1;" transform=" translate(-301.15, -173.8)" d="M 241.9 193.6 c 0.6 1.7 1.1 3.5 1.4 5.2 c 3.4 0 22.7 -0.9 37.7 -14.1 l 0.7 -0.6 l 0.7 0.6 c 0.1 0.1 7.9 7.4 14.2 9.6 c 0.2 -0.8 0.5 -2.2 1 -4.4 l 0.4 -1.6 l 1.2 1.1 c 0.1 0.1 11.6 9.5 35.4 9.5 c 7.3 0 15.1 -0.9 23.2 -2.7 l 2.6 -4.5 c -1.3 -14.8 -4.8 -29.3 -10.2 -43 L 241.9 193.6 z" stroke-linecap="round"/>
</g>
		<g transform="matrix(1 0 0 1 -31.9194 95.45)" id="Layer_1">
<path style="stroke: none; stroke-width: 1; stroke-dasharray: none; stroke-linecap: butt; stroke-dashoffset: 0; stroke-linejoin: miter; stroke-miterlimit: 4; is-custom-font: none; font-file-url: none; fill: none; fill-rule: nonzero; opacity: 1;" transform=" translate(-173.5806, -301.5)" d="M 188 298.4 l 1.6 -0.4 c 2 -0.5 3.5 -0.8 4.4 -1 c -2.2 -6.3 -9.5 -14.1 -9.6 -14.2 l -0.6 -0.7 l 0.6 -0.7 c 13.1 -14.9 14 -34.1 14.1 -37.7 c -1.7 -0.3 -3.5 -0.8 -5.2 -1.4 l -44.8 108.2 c 13.7 5.4 28.2 8.9 43 10.2 l 4.5 -2.6 c 8.7 -39.7 -6.7 -58.4 -6.9 -58.6 L 188 298.4 z" stroke-linecap="round"/>
</g>
		<g transform="matrix(1 0 0 1 87.1 58.8)" id="Layer_1">
<path style="stroke: none; stroke-width: 1; stroke-dasharray: none; stroke-linecap: butt; stroke-dashoffset: 0; stroke-linejoin: miter; stroke-miterlimit: 4; is-custom-font: none; font-file-url: none; fill: none; fill-rule: nonzero; opacity: 1;" transform=" translate(-292.6, -264.85)" d="M 237.2 227.7 c 2.6 2.5 16.8 15.4 36.6 16.7 l 0.9 0.1 l 0 0.9 c 0 0.1 0.4 10.8 3.2 16.8 c 0.7 -0.5 1.9 -1.2 3.8 -2.4 l 1.4 -0.9 l 0.1 1.6 c 0 0.2 2.5 24.4 36.6 46.3 l 4.9 -1.3 c 9.6 -11.5 17.4 -24.2 23.3 -37.8 L 240 222.9 C 239.2 224.6 238.3 226.2 237.2 227.7 z" stroke-linecap="round"/>
</g>
		<g transform="matrix(1 0 0 1 95.5 31.9)" id="Layer_1">
<path style="stroke: none; stroke-width: 1; stroke-dasharray: none; stroke-linecap: butt; stroke-dashoffset: 0; stroke-linejoin: miter; stroke-miterlimit: 4; is-custom-font: none; font-file-url: none; fill: none; fill-rule: nonzero; opacity: 1;" transform=" translate(-301, -237.95)" d="M 334.5 212.9 c -23.8 0 -35.2 9.4 -35.4 9.5 l -1.2 1.1 l -0.4 -1.6 c -0.5 -2.2 -0.8 -3.6 -1 -4.4 c -6.3 2.2 -14.1 9.5 -14.2 9.6 l -0.7 0.6 l -0.7 -0.6 c -15.1 -13.2 -34.4 -14 -37.7 -14.1 c -0.3 1.8 -0.8 3.5 -1.4 5.2 l 108.2 44.8 c 5.5 -13.8 8.9 -28.2 10.2 -43 l -2.6 -4.5 C 349.7 213.8 341.9 212.9 334.5 212.9 z" stroke-linecap="round"/>
</g>
		<g transform="matrix(1 0 0 1 59.05 87.3)" id="Layer_1">
<path style="stroke: none; stroke-width: 1; stroke-dasharray: none; stroke-linecap: butt; stroke-dashoffset: 0; stroke-linejoin: miter; stroke-miterlimit: 4; is-custom-font: none; font-file-url: none; fill: none; fill-rule: nonzero; opacity: 1;" transform=" translate(-264.55, -293.35)" d="M 260.1 283.9 l -1.6 -0.1 l 0.9 -1.4 c 1.2 -1.9 1.9 -3.1 2.4 -3.8 c -6 -2.9 -16.7 -3.2 -16.8 -3.2 l -0.9 0 l -0.1 -0.9 c -1.3 -19.9 -14.2 -34 -16.7 -36.6 c -1.5 1 -3 1.9 -4.6 2.7 l 44.8 108.2 c 13.6 -5.9 26.2 -13.7 37.6 -23.3 l 1.3 -4.9 C 284.5 286.3 260.3 283.9 260.1 283.9 z" stroke-linecap="round"/>
</g>
		<g transform="matrix(1 0 0 1 -0.05 0.05)" id="Layer_1">
<path style="stroke: none; stroke-width: 1; stroke-dasharray: none; stroke-linecap: butt; stroke-dashoffset: 0; stroke-linejoin: miter; stroke-miterlimit: 4; is-custom-font: none; font-file-url: none; fill: none; fill-rule: nonzero; opacity: 1;" transform=" translate(-205.45, -206.1)" d="M 222.4 197.5 c -0.7 -1.5 -1.7 -2.8 -2.7 -4 l -0.2 -0.2 c -0.2 -0.2 -0.4 -0.5 -0.6 -0.7 c -1.4 -1.4 -3 -2.5 -4.7 -3.4 c -0.9 -0.4 -1.8 -0.8 -2.6 -1.1 c -1.6 -0.5 -3.2 -0.8 -4.8 -0.9 l -0.3 0 c -0.3 0 -0.6 0 -0.9 0 c -1.9 0 -3.9 0.3 -5.8 0.9 c -1 0.3 -1.8 0.7 -2.6 1.1 c -1.5 0.7 -2.8 1.7 -4.1 2.7 l -0.2 0.2 c -0.2 0.2 -0.5 0.4 -0.7 0.6 c -1.4 1.4 -2.6 3 -3.5 4.8 c -0.4 0.9 -0.8 1.7 -1.1 2.6 c -0.6 1.9 -1 3.9 -1 6 c 0 0.3 0 0.6 0 0.9 l 0 0.3 c 0.1 1.6 0.4 3.2 0.9 4.8 c 0.3 0.9 0.7 1.8 1.1 2.6 c 0.9 1.8 2.1 3.4 3.5 4.8 c 0.2 0.2 0.5 0.4 0.7 0.6 l 0.2 0.2 c 1.2 1.1 2.6 2 4.1 2.7 c 0.8 0.4 1.7 0.8 2.6 1.1 c 1.9 0.6 3.8 0.9 5.8 0.9 c 0.3 0 0.6 0 0.9 0 l 0.3 0 c 1.6 -0.1 3.2 -0.4 4.8 -0.9 c 0.9 -0.3 1.8 -0.7 2.6 -1.1 c 1.8 -0.9 3.4 -2.1 4.7 -3.4 c 0.2 -0.2 0.4 -0.5 0.6 -0.7 l 0.2 -0.2 c 1.1 -1.2 2 -2.6 2.7 -4 c 0.4 -0.9 0.8 -1.8 1.1 -2.6 c 0.5 -1.5 0.8 -3.1 0.9 -4.7 l 0 -0.3 c 0 -0.3 0 -0.6 0 -0.9 c 0 -2 -0.3 -3.9 -0.9 -5.8 C 223.2 199.2 222.8 198.3 222.4 197.5 z" stroke-linecap="round"/>
</g>
		<g transform="matrix(1 0 0 1 32.1395 95.6)" id="Layer_1">
<path style="stroke: none; stroke-width: 1; stroke-dasharray: none; stroke-linecap: butt; stroke-dashoffset: 0; stroke-linejoin: miter; stroke-miterlimit: 4; is-custom-font: none; font-file-url: none; fill: none; fill-rule: nonzero; opacity: 1;" transform=" translate(-237.6395, -301.65)" d="M 212.6 243.8 c 0.1 3.7 1 22.8 14.1 37.7 l 0.6 0.7 l -0.6 0.7 c -0.1 0.1 -7.4 7.9 -9.6 14.2 c 1 0.2 2.4 0.5 4.4 1 l 1.6 0.4 l -1.1 1.2 c -0.2 0.2 -15.5 19 -6.9 58.6 l 4.5 2.6 c 14.9 -1.3 29.4 -4.8 43.2 -10.3 L 218 242.4 C 216.2 243 214.4 243.5 212.6 243.8 z" stroke-linecap="round"/>
</g>
		<g transform="matrix(1 0 0 1 170.05 -69.35)" id="Layer_1">
<path style="stroke: none; stroke-width: 1; stroke-dasharray: none; stroke-linecap: butt; stroke-dashoffset: 0; stroke-linejoin: miter; stroke-miterlimit: 4; is-custom-font: none; font-file-url: none; fill: rgb(0,150,255); fill-rule: nonzero; opacity: 1;" transform=" translate(-375.55, -136.7)" d="M 382 132.9 l -12.9 -5.3 c 2.8 5.9 5.4 12 7.6 18.2 L 382 132.9 z" stroke-linecap="round"/>
</g>
		<g transform="matrix(1 0 0 1 0 -0.05)" id="Layer_1">
<path style="stroke: none; stroke-width: 1; stroke-dasharray: none; stroke-linecap: butt; stroke-dashoffset: 0; stroke-linejoin: miter; stroke-miterlimit: 4; is-custom-font: none; font-file-url: none; fill: rgb(0,150,255); fill-rule: nonzero; opacity: 1;" transform=" translate(-205.5, -206)" d="M 205.5 176.5 c -16.3 0 -29.5 13.2 -29.5 29.5 s 13.2 29.5 29.5 29.5 c 16.3 0 29.5 -13.2 29.5 -29.5 S 221.8 176.5 205.5 176.5 z M 224.4 206.9 l 0 0.3 c -0.1 1.6 -0.4 3.2 -0.9 4.7 c -0.3 0.9 -0.6 1.8 -1.1 2.6 c -0.7 1.5 -1.6 2.8 -2.7 4 l -0.2 0.2 c -0.2 0.2 -0.4 0.5 -0.6 0.7 c -1.4 1.4 -3 2.5 -4.7 3.4 c -0.9 0.4 -1.8 0.8 -2.6 1.1 c -1.6 0.5 -3.2 0.8 -4.8 0.9 l -0.3 0 c -0.3 0 -0.6 0 -0.9 0 c -1.9 0 -3.9 -0.3 -5.8 -0.9 c -1 -0.3 -1.8 -0.7 -2.6 -1.1 c -1.5 -0.7 -2.8 -1.7 -4.1 -2.7 l -0.2 -0.2 c -0.2 -0.2 -0.5 -0.4 -0.7 -0.6 c -1.4 -1.4 -2.5 -3 -3.5 -4.8 c -0.4 -0.9 -0.8 -1.8 -1.1 -2.6 c -0.5 -1.6 -0.8 -3.2 -0.9 -4.8 l 0 -0.3 c 0 -0.3 0 -0.6 0 -0.9 c 0 -2 0.3 -4 1 -6 c 0.3 -0.9 0.7 -1.8 1.1 -2.6 c 0.9 -1.8 2.1 -3.4 3.5 -4.8 c 0.2 -0.2 0.5 -0.4 0.7 -0.6 l 0.2 -0.2 c 1.2 -1.1 2.6 -2 4.1 -2.7 c 0.8 -0.4 1.7 -0.8 2.6 -1.1 c 1.9 -0.6 3.8 -0.9 5.8 -0.9 c 0.3 0 0.6 0 0.9 0 l 0.3 0 c 1.6 0.1 3.2 0.4 4.8 0.9 c 0.9 0.3 1.8 0.7 2.6 1.1 c 1.8 0.9 3.4 2.1 4.7 3.4 c 0.2 0.2 0.4 0.5 0.6 0.7 l 0.2 0.2 c 1.1 1.2 2 2.6 2.7 4 c 0.4 0.8 0.8 1.7 1.1 2.6 c 0.6 1.9 0.9 3.9 0.9 5.8 C 224.4 206.3 224.4 206.6 224.4 206.9 z" stroke-linecap="round"/>
</g>
		<g transform="matrix(1 0 0 1 0 0.1)" id="Layer_1">
<path style="stroke: none; stroke-width: 1; stroke-dasharray: none; stroke-linecap: butt; stroke-dashoffset: 0; stroke-linejoin: miter; stroke-miterlimit: 4; is-custom-font: none; font-file-url: none; fill: rgb(0,150,255); fill-rule: nonzero; opacity: 1;" transform=" translate(-205.5, -206.15)" d="M 403.9 206 l -17.8 -17.8 c -1.4 -14.6 -4.6 -28.8 -9.4 -42.5 l -0.9 2.2 c -1.1 -3.6 -2.4 -7.3 -3.8 -10.9 c -1.5 -3.6 -3.1 -7.1 -5 -10.4 l 2.1 0.9 c -6.2 -13 -14.1 -25.3 -23.4 -36.6 V 65.7 h -25.2 c -11.3 -9.3 -23.6 -17.1 -36.7 -23.4 l -5.3 -12.8 l -12.8 5.3 c -13.3 -4.7 -27.2 -7.9 -41.4 -9.3 l -1.2 -0.1 L 205.5 7.6 l -17.7 17.7 l -1.2 0.1 c -14.2 1.5 -28.1 4.6 -41.4 9.3 l -12.8 -5.3 l -5.3 12.8 c -13.1 6.3 -25.4 14.1 -36.7 23.4 H 65.2 V 91 c -9.3 11.3 -17.1 23.6 -23.4 36.6 L 29 132.9 l 5.3 12.9 c -4.8 13.7 -8 27.9 -9.4 42.5 L 7.1 206 l 17.8 17.8 c 1.4 14.7 4.7 28.9 9.4 42.4 L 29 279.2 l 13 5.4 c 6.3 13.1 14.2 25.3 23.3 36.5 v 25.4 h 25.4 c 11.1 9.1 23.3 17 36.4 23.3 l 5.4 13 l 13 -5.4 c 13.4 4.7 27.6 7.9 42.3 9.4 l 17.9 17.9 l 17.9 -17.9 c 14.7 -1.4 28.8 -4.6 42.3 -9.4 l 13 5.4 l 5.4 -13 c 13.1 -6.3 25.3 -14.1 36.4 -23.2 h 25.4 V 321 c 9.1 -11.1 17 -23.4 23.3 -36.4 l 13 -5.4 l -5.4 -12.9 c 4.8 -13.5 8 -27.7 9.4 -42.4 L 403.9 206 z M 324.9 106.4 c 9.6 11.5 17.4 24.2 23.3 37.8 L 240 189 c -0.8 -1.7 -1.8 -3.3 -2.8 -4.8 c 2.6 -2.5 16.8 -15.4 36.6 -16.7 l 0.9 -0.1 l 0 -0.9 c 0 -0.1 0.4 -10.8 3.2 -16.8 c 0.7 0.5 1.9 1.2 3.8 2.4 l 1.4 0.9 l 0.1 -1.6 c 0 -0.2 2.4 -24.3 36.6 -46.3 L 324.9 106.4 z M 267.4 63.3 c 13.6 5.9 26.2 13.7 37.6 23.3 l 1.3 4.9 c -21.9 34.1 -46 36.5 -46.3 36.6 l -1.6 0.1 l 0.9 1.4 c 1.2 1.9 1.9 3.1 2.4 3.8 c -6 2.9 -16.7 3.2 -16.8 3.2 l -0.9 0 l -0.1 0.9 c -1.3 19.9 -14.2 34 -16.7 36.6 c -1.5 -1 -3 -1.9 -4.6 -2.7 L 267.4 63.3 z M 215.1 53.7 l 4.5 -2.6 c 14.9 1.3 29.4 4.8 43.2 10.3 L 218 169.6 c -1.8 -0.6 -3.6 -1.1 -5.4 -1.4 c 0.1 -3.7 1 -22.8 14.1 -37.7 l 0.6 -0.7 l -0.6 -0.7 c -0.1 -0.1 -7.4 -7.9 -9.6 -14.2 c 1 -0.2 2.4 -0.5 4.4 -1 l 1.6 -0.4 l -1.1 -1.2 C 221.8 112.1 206.5 93.3 215.1 53.7 z M 191.4 51.1 l 4.5 2.6 c 8.6 39.6 -6.7 58.4 -6.9 58.6 l -1.1 1.2 l 1.6 0.4 c 2 0.5 3.5 0.8 4.4 1 c -2.2 6.3 -9.5 14.1 -9.6 14.2 l -0.6 0.7 l 0.6 0.7 c 13.1 14.9 14 34.1 14.1 37.7 c -1.7 0.3 -3.5 0.8 -5.2 1.4 L 148.4 61.3 C 162.2 55.9 176.6 52.5 191.4 51.1 z M 105.9 86.6 c 11.5 -9.6 24.2 -17.5 37.9 -23.4 l 44.8 108.2 c -1.7 0.8 -3.3 1.8 -4.8 2.8 c -2.5 -2.6 -15.4 -16.8 -16.7 -36.6 l -0.1 -0.9 l -0.9 0 c -0.1 0 -10.8 -0.4 -16.8 -3.2 c 0.5 -0.7 1.2 -1.9 2.4 -3.8 l 0.9 -1.4 l -1.6 -0.1 c -0.2 0 -24.3 -2.4 -46.3 -36.6 L 105.9 86.6 z M 86.1 106.4 l 4.9 -1.3 c 34.1 21.9 36.5 46 36.6 46.3 l 0.1 1.6 l 1.4 -0.9 c 1.9 -1.2 3.1 -1.9 3.8 -2.4 c 2.9 6 3.2 16.7 3.2 16.8 l 0 0.9 l 0.9 0.1 c 19.9 1.3 34.1 14.2 36.6 16.7 c -1 1.5 -1.9 3 -2.7 4.7 L 62.8 144.1 C 68.8 130.5 76.6 117.9 86.1 106.4 z M 60.9 148.7 l 108.2 44.8 c -0.6 1.8 -1.1 3.6 -1.4 5.4 c -3.4 0 -22.7 -0.9 -37.7 -14.1 l -0.7 -0.6 l -0.7 0.6 c -0.1 0.1 -7.9 7.4 -14.2 9.6 c -0.2 -0.8 -0.5 -2.2 -1 -4.4 l -0.4 -1.6 l -1.2 1.1 c -0.1 0.1 -11.6 9.5 -35.4 9.5 c -7.3 0 -15.1 -0.9 -23.2 -2.7 l -2.6 -4.5 C 52 177 55.4 162.5 60.9 148.7 z M 50.6 220.1 l 2.6 -4.5 c 8.1 -1.8 15.9 -2.7 23.2 -2.7 c 23.8 0 35.2 9.4 35.4 9.5 l 1.2 1.1 l 0.4 -1.6 c 0.5 -2.2 0.8 -3.6 1 -4.4 c 6.3 2.2 14.1 9.5 14.2 9.6 l 0.7 0.6 l 0.7 -0.6 c 15.1 -13.2 34.4 -14 37.7 -14.1 c 0.3 1.8 0.8 3.6 1.4 5.4 L 60.9 263.2 C 55.4 249.4 52 234.9 50.6 220.1 z M 86.1 305.5 c -9.6 -11.4 -17.4 -24.1 -23.3 -37.7 L 171 223 c 0.8 1.6 1.7 3.2 2.7 4.7 c -2.6 2.5 -16.8 15.4 -36.6 16.7 l -0.9 0.1 l 0 0.9 c 0 0.1 -0.4 10.8 -3.2 16.8 c -0.7 -0.5 -1.9 -1.2 -3.8 -2.4 l -1.4 -0.9 l -0.1 1.6 c 0 0.2 -2.5 24.4 -36.6 46.3 L 86.1 305.5 z M 143.8 348.7 c -13.6 -5.9 -26.4 -13.8 -37.9 -23.4 l -1.3 -4.9 c 21.9 -34.1 46 -36.5 46.3 -36.6 l 1.6 -0.1 l -0.9 -1.4 c -1.2 -1.9 -1.9 -3.1 -2.4 -3.8 c 6 -2.9 16.7 -3.2 16.8 -3.2 l 0.9 0 l 0.1 -0.9 c 1.3 -19.9 14.2 -34 16.7 -36.6 c 1.5 1 3.1 2 4.8 2.8 L 143.8 348.7 z M 195.9 358.2 l -4.5 2.6 c -14.8 -1.3 -29.2 -4.8 -43 -10.2 l 44.8 -108.2 c 1.7 0.6 3.4 1 5.2 1.4 c -0.1 3.7 -1 22.8 -14.1 37.7 l -0.6 0.7 l 0.6 0.7 c 0.1 0.1 7.4 7.9 9.6 14.2 c -1 0.2 -2.4 0.5 -4.4 1 l -1.6 0.4 l 1.1 1.2 C 189.2 299.8 204.5 318.6 195.9 358.2 z M 172 206 c 0 -18.5 15 -33.5 33.5 -33.5 c 18.5 0 33.5 15 33.5 33.5 s -15 33.5 -33.5 33.5 C 187 239.5 172 224.4 172 206 z M 219.6 360.8 l -4.5 -2.6 c -8.6 -39.6 6.7 -58.4 6.9 -58.6 l 1.1 -1.2 l -1.6 -0.4 c -2 -0.5 -3.5 -0.8 -4.4 -1 c 2.2 -6.3 9.5 -14.1 9.6 -14.2 l 0.6 -0.7 l -0.6 -0.7 c -13.1 -14.9 -14 -34.1 -14.1 -37.7 c 1.8 -0.3 3.6 -0.8 5.4 -1.4 l 44.8 108.2 C 249 356 234.5 359.5 219.6 360.8 z M 305.1 325.3 c -11.4 9.5 -24.1 17.4 -37.6 23.3 l -44.8 -108.2 c 1.6 -0.8 3.2 -1.7 4.6 -2.7 c 2.5 2.6 15.4 16.8 16.7 36.6 l 0.1 0.9 l 0.9 0 c 0.1 0 10.8 0.4 16.8 3.2 c -0.5 0.7 -1.2 1.9 -2.4 3.8 l -0.9 1.4 l 1.6 0.1 c 0.2 0 24.4 2.5 46.3 36.6 L 305.1 325.3 z M 324.9 305.5 l -4.9 1.3 c -34.1 -21.9 -36.5 -46 -36.6 -46.3 l -0.1 -1.6 l -1.4 0.9 c -1.9 1.2 -3.1 1.9 -3.8 2.4 c -2.9 -6 -3.2 -16.7 -3.2 -16.8 l 0 -0.9 l -0.9 -0.1 c -19.9 -1.3 -34 -14.2 -36.6 -16.7 c 1 -1.5 2 -3.1 2.8 -4.8 l 108.2 44.8 C 342.3 281.3 334.4 294.1 324.9 305.5 z M 350.1 263.1 l -108.2 -44.8 c 0.6 -1.7 1.1 -3.5 1.4 -5.2 c 3.4 0 22.7 0.9 37.7 14.1 l 0.7 0.6 l 0.7 -0.6 c 0.1 -0.1 7.9 -7.4 14.2 -9.6 c 0.2 0.8 0.5 2.2 1 4.4 l 0.4 1.6 l 1.2 -1.1 c 0.1 -0.1 11.6 -9.5 35.4 -9.5 c 7.3 0 15.1 0.9 23.2 2.7 l 2.6 4.5 C 359 234.9 355.6 249.3 350.1 263.1 z M 357.8 196.4 c -8.1 1.8 -15.9 2.7 -23.2 2.7 c -23.8 0 -35.2 -9.4 -35.4 -9.5 l -1.2 -1.1 l -0.4 1.6 c -0.5 2.2 -0.8 3.6 -1 4.4 c -6.3 -2.2 -14.1 -9.5 -14.2 -9.6 l -0.7 -0.6 l -0.7 0.6 c -15.1 13.2 -34.4 14 -37.7 14.1 c -0.3 -1.8 -0.8 -3.5 -1.4 -5.2 l 108.2 -44.8 c 5.5 13.8 8.9 28.2 10.2 43 L 357.8 196.4 z" stroke-linecap="round"/>
</g>
		<g transform="matrix(1 0 0 1 166.35 -68.7)" id="Layer_1">
<path style="stroke: none; stroke-width: 1; stroke-dasharray: none; stroke-linecap: butt; stroke-dashoffset: 0; stroke-linejoin: miter; stroke-miterlimit: 4; is-custom-font: none; font-file-url: none; fill: rgb(0,150,255); fill-rule: nonzero; opacity: 1;" transform=" translate(-371.85, -137.35)" d="M 372 137.1 c 1.5 3.6 2.8 7.2 3.8 10.9 l 0.9 -2.2 c -2.2 -6.2 -4.7 -12.3 -7.6 -18.2 l -2.1 -0.9 C 368.8 130 370.5 133.5 372 137.1 z" stroke-linecap="round"/>
</g>
</g>
</g>
</svg>